<svg xmlns="http://www.w3.org/2000/svg" viewBox="0 0 597.48 204" width="597.48" height="204" role="img" aria-label="Marquez Family Home Care" xmlns:c2pa="http://c2pa.org/manifest"><metadata><c2pa:manifest>AAAWgmp1bWIAAAAeanVtZGMycGEAEQAQgAAAqgA4m3EDYzJwYQAAABZcanVtYgAAAEdqdW1kYzJtYQARABCAAACqADibcQN1cm46YzJwYTplNjVkZDBhMC1hMTRhLTQ5ZDYtOGYyNS1iZjgyMjE0NDAxODQAAAADl2p1bWIAAAApanVtZGMyYXMAEQAQgAAAqgA4m3EDYzJwYS5hc3NlcnRpb25zAAAAALxqdW1iAAAARGp1bWRjYm9yABEAEIAAAKoAOJtxE2MycGEuaW5ncmVkaWVudC52MwAAAAAYYzJzaAMz1e/oPbDzFv9zYfMNp0QAAABwY2JvcqNpZGM6Zm9ybWF0bWltYWdlL3N2Zyt4bWxqaW5zdGFuY2VJRHgseG1wOmlpZDoyOTIwZmI2Yy02N2Q1LTQ1ODQtYjJjNS1hOGJhYjJmOWQ2YzdscmVsYXRpb25zaGlwaHBhcmVudE9mAAAB4mp1bWIAAABBanVtZGNib3IAEQAQgAAAqgA4m3ETYzJwYS5hY3Rpb25zLnYyAAAAABhjMnNocEHhnb8jNW8HKpra+zSUNwAAAZljYm9yomdhY3Rpb25zgqJmYWN0aW9ua2MycGEub3BlbmVkanBhcmFtZXRlcnOha2luZ3JlZGllbnRzgaJjdXJseC1zZWxmI2p1bWJmPWMycGEuYXNzZXJ0aW9ucy9jMnBhLmluZ3JlZGllbnQudjNkaGFzaFggSVyKU0y0To1//6KWpGMu4d6Wr6IQX1gykimVRRIGIk6kZmFjdGlvbngdY29tLmFudGhyb3BpYy5jbGF1ZGUucHJvdmlkZWRqcGFyYW1ldGVyc6F4H2NvbS5hbnRocm9waWMub3JpZ2luLWNvbmZpZGVuY2VndW5rbm93bmtkZXNjcmlwdGlvbnhmQ2xhdWRlIHByb3ZpZGVkIHRoaXMgZmlsZSBhdCB0aGUgcmVxdWVzdCBvZiBhIHVzZXIgYW5kIG1heSBoYXZlIGNyZWF0ZWQgb3IgbW9kaWZpZWQgdGhlIGZpbGUgY29udGVudHMubXNvZnR3YXJlQWdlbnShZG5hbWVmQ2xhdWRlcmFsbEFjdGlvbnNJbmNsdWRlZPUAAADIanVtYgAAAEBqdW1kY2JvcgARABCAAACqADibcRNjMnBhLmhhc2guZGF0YQAAAAAYYzJzaNOHeTeNC/v02jvZqjvWaJkAAACAY2JvcqVjYWxnZnNoYTI1NmNwYWRNAAAAAAAAAAAAAAAAAGRoYXNoWCCQgojvUqMKHzmQNY+StTTeia3u/pJLuv/W6sxrK51oRmRuYW1lbmp1bWJmIG1hbmlmZXN0amV4Y2x1c2lvbnOBomVzdGFydBjNZmxlbmd0aBkeBAAAAj5qdW1iAAAAJ2p1bWRjMmNsABEAEIAAAKoAOJtxA2MycGEuY2xhaW0udjIAAAACD2Nib3KlY2FsZ2ZzaGEyNTZpc2lnbmF0dXJleE1zZWxmI2p1bWJmPS9jMnBhL3VybjpjMnBhOmU2NWRkMGEwLWExNGEtNDlkNi04ZjI1LWJmODIyMTQ0MDE4NC9jMnBhLnNpZ25hdHVyZWppbnN0YW5jZUlEeCx4bXA6aWlkOjI5NGJhYzMwLTg4NjYtNDJiZC05Nzc3LWVmZGYyMjQ5ZTA5M3JjcmVhdGVkX2Fzc2VydGlvbnODomN1cmx4LXNlbGYjanVtYmY9YzJwYS5hc3NlcnRpb25zL2MycGEuaW5ncmVkaWVudC52M2RoYXNoWCBJXIpTTLROjX//opakYy7h3pavohBfWDKSKZVFEgYiTqJjdXJseCpzZWxmI2p1bWJmPWMycGEuYXNzZXJ0aW9ucy9jMnBhLmFjdGlvbnMudjJkaGFzaFggRU1nK+VkQYIvJRSGbFyJudD4SZsIupsTa3fvYJCQhV2iY3VybHgpc2VsZiNqdW1iZj1jMnBhLmFzc2VydGlvbnMvYzJwYS5oYXNoLmRhdGFkaGFzaFggZKtnJnkI3SXaOMOatJ9fdZ9Q3C/aZt1HYNelMVuNzH50Y2xhaW1fZ2VuZXJhdG9yX2luZm+jZG5hbWVvQW50aHJvcGljIEZpbGVzZ3ZlcnNpb25lMS4wLjBrc3BlY1ZlcnNpb25lMi40LjAAABA4anVtYgAAAChqdW1kYzJjcwARABCAAACqADibcQNjMnBhLnNpZ25hdHVyZQAAABAIY2JvctKEWQISogEmGCFZAgowggIGMIIBjaADAgECAhRA5aAK7sI50L64g/oGQgU9Z1UTADAKBggqhkjOPQQDAzBJMRcwFQYDVQQKEw5BbnRocm9waWMsIFBCQzEuMCwGA1UEAxMlQW50aHJvcGljIENvbnRlbnQgQ3JlZGVudGlhbHMgUm9vdCBDQTAeFw0yNjA4MDcxODQzNTZaFw0yODA4MDYxOTQzNTZaMEQxFzAVBgNVBAoTDkFudGhyb3BpYywgUEJDMSkwJwYDVQQDEyBBbnRocm9waWMgQ2xhdWRlIENvbnRlbnQgU2lnbmluZzBZMBMGByqGSM49AgEGCCqGSM49AwEHA0IABJh6CmvLUBgFFNU0vUKlOVtE6djd17L5SuwX0LemFisBM3dkd/3cyjxFA3Qo5S46fX0/ihY0VZ7mfb9KF703t5OjWDBWMA4GA1UdDwEB/wQEAwIHgDAVBgNVHSUEDjAMBgorBgEEAYPoXgIBMAwGA1UdEwEB/wQCMAAwHwYDVR0jBBgwFoAUzlHiBIFOZFsj+OPEz5o+nMHXXMIwCgYIKoZIzj0EAwMDZwAwZAIwMXMdFJ4BetLLVY7ORuE9noqbbAZOZn/aArXyTwFAZfKrPzxF2vPoJNf1+UCdg1XGAjBwX1zd9WGqYkqmL5SFqw1QySjr1zJfpJM9+1rdDwSPLMOPOjKuiXjoU/pUUeG9RwmhY3BhZFkNngAAAAAAAAAAAAAAAAAAAAAAAAAAAAAAAAAAAAAAAAAAAAAAAAAAAAAAAAAAAAAAAAAAAAAAAAAAAAAAAAAAAAAAAAAAAAAAAAAAAAAAAAAAAAAAAAAAAAAAAAAAAAAAAAAAAAAAAAAAAAAAAAAAAAAAAAAAAAAAAAAAAAAAAAAAAAAAAAAAAAAAAAAAAAAAAAAAAAAAAAAAAAAAAAAAAAAAAAAAAAAAAAAAAAAAAAAAAAAAAAAAAAAAAAAAAAAAAAAAAAAAAAAAAAAAAAAAAAAAAAAAAAAAAAAAAAAAAAAAAAAAAAAAAAAAAAAAAAAAAAAAAAAAAAAAAAAAAAAAAAAAAAAAAAAAAAAAAAAAAAAAAAAAAAAAAAAAAAAAAAAAAAAAAAAAAAAAAAAAAAAAAAAAAAAAAAAAAAAAAAAAAAAAAAAAAAAAAAAAAAAAAAAAAAAAAAAAAAAAAAAAAAAAAAAAAAAAAAAAAAAAAAAAAAAAAAAAAAAAAAAAAAAAAAAAAAAAAAAAAAAAAAAAAAAAAAAAAAAAAAAAAAAAAAAAAAAAAAAAAAAAAAAAAAAAAAAAAAAAAAAAAAAAAAAAAAAAAAAAAAAAAAAAAAAAAAAAAAAAAAAAAAAAAAAAAAAAAAAAAAAAAAAAAAAAAAAAAAAAAAAAAAAAAAAAAAAAAAAAAAAAAAAAAAAAAAAAAAAAAAAAAAAAAAAAAAAAAAAAAAAAAAAAAAAAAAAAAAAAAAAAAAAAAAAAAAAAAAAAAAAAAAAAAAAAAAAAAAAAAAAAAAAAAAAAAAAAAAAAAAAAAAAAAAAAAAAAAAAAAAAAAAAAAAAAAAAAAAAAAAAAAAAAAAAAAAAAAAAAAAAAAAAAAAAAAAAAAAAAAAAAAAAAAAAAAAAAAAAAAAAAAAAAAAAAAAAAAAAAAAAAAAAAAAAAAAAAAAAAAAAAAAAAAAAAAAAAAAAAAAAAAAAAAAAAAAAAAAAAAAAAAAAAAAAAAAAAAAAAAAAAAAAAAAAAAAAAAAAAAAAAAAAAAAAAAAAAAAAAAAAAAAAAAAAAAAAAAAAAAAAAAAAAAAAAAAAAAAAAAAAAAAAAAAAAAAAAAAAAAAAAAAAAAAAAAAAAAAAAAAAAAAAAAAAAAAAAAAAAAAAAAAAAAAAAAAAAAAAAAAAAAAAAAAAAAAAAAAAAAAAAAAAAAAAAAAAAAAAAAAAAAAAAAAAAAAAAAAAAAAAAAAAAAAAAAAAAAAAAAAAAAAAAAAAAAAAAAAAAAAAAAAAAAAAAAAAAAAAAAAAAAAAAAAAAAAAAAAAAAAAAAAAAAAAAAAAAAAAAAAAAAAAAAAAAAAAAAAAAAAAAAAAAAAAAAAAAAAAAAAAAAAAAAAAAAAAAAAAAAAAAAAAAAAAAAAAAAAAAAAAAAAAAAAAAAAAAAAAAAAAAAAAAAAAAAAAAAAAAAAAAAAAAAAAAAAAAAAAAAAAAAAAAAAAAAAAAAAAAAAAAAAAAAAAAAAAAAAAAAAAAAAAAAAAAAAAAAAAAAAAAAAAAAAAAAAAAAAAAAAAAAAAAAAAAAAAAAAAAAAAAAAAAAAAAAAAAAAAAAAAAAAAAAAAAAAAAAAAAAAAAAAAAAAAAAAAAAAAAAAAAAAAAAAAAAAAAAAAAAAAAAAAAAAAAAAAAAAAAAAAAAAAAAAAAAAAAAAAAAAAAAAAAAAAAAAAAAAAAAAAAAAAAAAAAAAAAAAAAAAAAAAAAAAAAAAAAAAAAAAAAAAAAAAAAAAAAAAAAAAAAAAAAAAAAAAAAAAAAAAAAAAAAAAAAAAAAAAAAAAAAAAAAAAAAAAAAAAAAAAAAAAAAAAAAAAAAAAAAAAAAAAAAAAAAAAAAAAAAAAAAAAAAAAAAAAAAAAAAAAAAAAAAAAAAAAAAAAAAAAAAAAAAAAAAAAAAAAAAAAAAAAAAAAAAAAAAAAAAAAAAAAAAAAAAAAAAAAAAAAAAAAAAAAAAAAAAAAAAAAAAAAAAAAAAAAAAAAAAAAAAAAAAAAAAAAAAAAAAAAAAAAAAAAAAAAAAAAAAAAAAAAAAAAAAAAAAAAAAAAAAAAAAAAAAAAAAAAAAAAAAAAAAAAAAAAAAAAAAAAAAAAAAAAAAAAAAAAAAAAAAAAAAAAAAAAAAAAAAAAAAAAAAAAAAAAAAAAAAAAAAAAAAAAAAAAAAAAAAAAAAAAAAAAAAAAAAAAAAAAAAAAAAAAAAAAAAAAAAAAAAAAAAAAAAAAAAAAAAAAAAAAAAAAAAAAAAAAAAAAAAAAAAAAAAAAAAAAAAAAAAAAAAAAAAAAAAAAAAAAAAAAAAAAAAAAAAAAAAAAAAAAAAAAAAAAAAAAAAAAAAAAAAAAAAAAAAAAAAAAAAAAAAAAAAAAAAAAAAAAAAAAAAAAAAAAAAAAAAAAAAAAAAAAAAAAAAAAAAAAAAAAAAAAAAAAAAAAAAAAAAAAAAAAAAAAAAAAAAAAAAAAAAAAAAAAAAAAAAAAAAAAAAAAAAAAAAAAAAAAAAAAAAAAAAAAAAAAAAAAAAAAAAAAAAAAAAAAAAAAAAAAAAAAAAAAAAAAAAAAAAAAAAAAAAAAAAAAAAAAAAAAAAAAAAAAAAAAAAAAAAAAAAAAAAAAAAAAAAAAAAAAAAAAAAAAAAAAAAAAAAAAAAAAAAAAAAAAAAAAAAAAAAAAAAAAAAAAAAAAAAAAAAAAAAAAAAAAAAAAAAAAAAAAAAAAAAAAAAAAAAAAAAAAAAAAAAAAAAAAAAAAAAAAAAAAAAAAAAAAAAAAAAAAAAAAAAAAAAAAAAAAAAAAAAAAAAAAAAAAAAAAAAAAAAAAAAAAAAAAAAAAAAAAAAAAAAAAAAAAAAAAAAAAAAAAAAAAAAAAAAAAAAAAAAAAAAAAAAAAAAAAAAAAAAAAAAAAAAAAAAAAAAAAAAAAAAAAAAAAAAAAAAAAAAAAAAAAAAAAAAAAAAAAAAAAAAAAAAAAAAAAAAAAAAAAAAAAAAAAAAAAAAAAAAAAAAAAAAAAAAAAAAAAAAAAAAAAAAAAAAAAAAAAAAAAAAAAAAAAAAAAAAAAAAAAAAAAAAAAAAAAAAAAAAAAAAAAAAAAAAAAAAAAAAAAAAAAAAAAAAAAAAAAAAAAAAAAAAAAAAAAAAAAAAAAAAAAAAAAAAAAAAAAAAAAAAAAAAAAAAAAAAAAAAAAAAAAAAAAAAAAAAAAAAAAAAAAAAAAAAAAAAAAAAAAAAAAAAAAAAAAAAAAAAAAAAAAAAAAAAAAAAAAAAAAAAAAAAAAAAAAAAAAAAAAAAAAAAAAAAAAAAAAAAAAAAAAAAAAAAAAAAAAAAAAAAAAAAAAAAAAAAAAAAAAAAAAAAAAAAAAAAAAAAAAAAAAAAAAAAAAAAAAAAAAAAAAAAAAAAAAAAAAAAAAAAAAAAAAAAAAAAAAAAAAAAAAAAAAAAAAAAAAAAAAAAAAAAAAAAAAAAAAAAAAAAAAAAAAAAAAAAAAAAAAAAAAAAAAAAAAAAAAAAAAAAAAAAAAAAAAAAAAAAAAAAAAAAAAAAAAAAAAAAAAAAAAAAAAAAAAAAAAAAAAAAAAAAAAAAAAAAAAAAAAAAAAAAAAAAAAAAAAAAAAAAAAAAAAAAAAAAAAAAAAAAAAAAAAAAAAAAAAAAAAAAAAAAAAAAAAAAAAAAAAAAAAAAAAAAAAAAAAAAAAAAAAAAAAAAAAAAAAAAAAAAAAAAAAAAAAAAAAAAAAAAAAAAAAAAAAAAAAAAAAAAAAAAAAAAAAAAAAAAAAAAAAAAAAAAAAAAAAAAAAAAAAAAAAAAAAAAAAAAAAAAAAAAAAAAAAAAAAAAAAAAAAAAAAAAAAAAAAAAAAAAAAAAAAAAAAAAAAAAAAAAAAAAAAAAAAAAAAAAAAAAAAAAAAAAAAAAAAAAAAAAAAAAAAAAAAAAAAAAAAAAAAAAAAAAAAAAAAAAAAAAAAAAAAAAAAAAAAAAAAAAAAAAAAAAAAAAAAAAAAAAAAAAAAAAAAAAAAAAAAAAAAAAAAAAAAAAAAAAAAAAAAAAAAAAAAAAAAAAAAAAAAAAAAAAAAAAAAAAAAAAAAAAAAAAAAAAAAAAAAAAAAAAAAAAAAAAAAAAAAAAAAAAAAAAAAAAAAAAAAAAAAAAAAAAAAAAAAAAAAAAAAAAAAAAAAAAAAAAAAAAAAAAAAAAAAAAAAAAAAAAAAAAAAAAAAAAAAAAAAAAAAAAAAAAAAAAAAAAAAAAAAAAAAAAAAAAAAAAAAAAAAAAAAAAAAAAAAAAAAAAAAAAAAAAAAAAAAAAAAAAAAAAAAAAAAAAAAAAAAAAAAAAAAAAAAAAAAAAAAAAAAAAAAAAAAAAAAAAAAAAAAAAAAAAAAAAAAAAAAAAAAAAAAAAAAAAAAAAAAAAAAAAAAAAAAAAAAAAAAAAAAAAAAAAAAAAAAAAAAAAAAAAAAAAAAAAAAAAAAAAAAAAAAAAAAAAAAAAAAAAAAAAAAAAAAAAAAAAAAAAAAAAAAAAAAAAAAAAAAAAAAAAAAAAAAAAAAAAAAAAAAAAAAAAAAAAAAAAAAAAAAAAAAAAAAAAAAAAAAAAAAAAAAAAAAAAAAAAAAAAAAAAAAAAAAAAAAAAAAAAAAAAAAAAAAAAAAAAAAAAAAAAAAAAAAAAAAAAAAAAAAAAAAAAAAAAAPZYQOdD5oHykf0I+/FPopxhcngRxOURdjZ4gZJgeeUzD+d9wABuOXmfKbkihuDiIQTTDxyNYBmnrRnakp5Sbw6T5iM=</c2pa:manifest></metadata>
<title>Marquez Family Home Care</title>
<g transform="translate(-3 -1)"><path d="M24 184 V66 L62 22 L100 72 L138 22 L176 66 V184" fill="none" stroke="#0f3e17" stroke-width="10" stroke-linecap="round" stroke-linejoin="round"/>
<path d="M100 146 C106.6 143.6 111 132.8 111 117.2 C111 102.8 104.4 90.8 100 86 C95.6 90.8 89 102.8 89 117.2 C89 132.8 93.4 143.6 100 146Z" fill="#4c9463"/>
<path d="M100 138.8 L100 99.2" stroke="#2f6b41" stroke-width="1.3" stroke-linecap="round" fill="none" opacity="0.55"/>
<path d="M98 151 C93.15 146.35 81.93 147.16 69.42 153.26 C55.86 159.87 48.2 170.62 45.87 176.43 C51.88 178.17 65.07 178.74 78.62 172.13 C91.13 166.03 98.68 157.68 98 151Z" fill="#4c9463"/>
<path d="M91.74 154.05 L57.34 170.83" stroke="#2f6b41" stroke-width="1.3" stroke-linecap="round" fill="none" opacity="0.55"/>
<path d="M102 151 C101.32 157.68 108.87 166.03 121.38 172.13 C134.93 178.74 148.12 178.17 154.13 176.43 C151.8 170.62 144.14 159.87 130.58 153.26 C118.07 147.16 106.85 146.35 102 151Z" fill="#4c9463"/>
<path d="M108.26 154.05 L142.66 170.83" stroke="#2f6b41" stroke-width="1.3" stroke-linecap="round" fill="none" opacity="0.55"/>
<path d="M98 147 C99.94 141.58 95.36 133.03 84.63 124.04 C76.21 116.97 65.31 114.4 59.7 114.86 C60.22 120.47 64.64 130.75 73.06 137.82 C83.79 146.82 93 149.85 98 147Z" fill="#79b88b"/>
<path d="M93.4 143.14 L68.12 121.93" stroke="#2f6b41" stroke-width="1.3" stroke-linecap="round" fill="none" opacity="0.55"/>
<path d="M102 147 C107 149.85 116.21 146.82 126.94 137.82 C135.36 130.75 139.78 120.47 140.3 114.86 C134.69 114.4 123.79 116.97 115.37 124.04 C104.64 133.03 100.06 141.58 102 147Z" fill="#79b88b"/>
<path d="M106.6 143.14 L131.88 121.93" stroke="#2f6b41" stroke-width="1.3" stroke-linecap="round" fill="none" opacity="0.55"/>
<path d="M91 143 C86.5 147 86 155 87 161 C81 163 79 170 83 175 C85 178.5 89 177 91 179.5 C93 182 97 180.5 100 182.5 C103 180.5 107 182 109 179.5 C111 177 115 178.5 117 175 C121 170 119 163 113 161 C114 155 113.5 147 109 143 C105 148 95 148 91 143Z" fill="#f4c2ce" stroke="#e59ab0" stroke-width="1.2" stroke-linejoin="round"/>
<circle cx="94" cy="165" r="1.6" fill="#7a1f3d"/>
<circle cx="100" cy="164" r="1.4" fill="#7a1f3d"/>
<circle cx="106" cy="166" r="1.7" fill="#7a1f3d"/>
<circle cx="89" cy="169" r="1.3" fill="#7a1f3d"/>
<circle cx="111" cy="170" r="1.3" fill="#7a1f3d"/>
<circle cx="96" cy="171" r="1.8" fill="#7a1f3d"/>
<circle cx="103" cy="172" r="1.5" fill="#7a1f3d"/>
<circle cx="108" cy="175" r="1.1" fill="#7a1f3d"/>
<circle cx="91" cy="175" r="1.2" fill="#7a1f3d"/>
<circle cx="99" cy="177" r="1.2" fill="#7a1f3d"/>
<circle cx="105" cy="178.5" r="0.9" fill="#7a1f3d"/>
<circle cx="95" cy="178" r="0.9" fill="#7a1f3d"/>
<path d="M89.5 148 Q90 155 92 160 M110.5 148 Q110 155 108 160" stroke="#7a1f3d" stroke-width="1.1" stroke-linecap="round" fill="none" opacity="0.7"/>
<path d="M94.5 140 C93 148 94 156 97 159 C99 160.5 101 160.5 103 159 C106 156 107 148 105.5 140 C103 137 97 137 94.5 140Z" fill="#fbf3e0"/>
<ellipse cx="100" cy="157" rx="3.2" ry="2.4" fill="#f0cf7a"/></g>
<path d="M239.94400000000002 103.86023046875 240.984 53.10823046875 243.584 53.31623046875 242.544 103.86023046875Q242.44 109.26823046875 244.46800000000002 111.86823046875Q246.496 114.46823046875 251.28 114.46823046875Q251.592 114.46823046875 251.592 115.09223046874999Q251.592 115.71623046875 251.28 115.71623046875Q248.99200000000002 115.71623046875 246.60000000000002 115.61223046875Q244.20800000000003 115.50823046875 241.192 115.50823046875Q238.38400000000001 115.50823046875 235.88800000000003 115.61223046875Q233.39200000000002 115.71623046875 231.208 115.71623046875Q231.0 115.71623046875 231.0 115.09223046874999Q231.0 114.46823046875 231.208 114.46823046875Q235.57600000000002 114.46823046875 237.70800000000003 111.86823046875Q239.84 109.26823046875 239.94400000000002 103.86023046875ZM312.744 114.46823046875Q312.952 114.46823046875 312.952 115.09223046874999Q312.952 115.71623046875 312.744 115.71623046875Q310.144 115.71623046875 306.92 115.61223046875Q303.696 115.50823046875 300.05600000000004 115.50823046875Q296.624 115.50823046875 293.608 115.61223046875Q290.592 115.71623046875 288.2 115.71623046875Q287.88800000000003 115.71623046875 287.88800000000003 115.09223046874999Q287.88800000000003 114.46823046875 288.2 114.46823046875Q293.296 114.46823046875 294.752 113.11623046874999Q296.208 111.76423046875 295.896 107.29223046875L293.81600000000003 58.308230468750004L297.872 52.48423046875L270.93600000000004 114.98823046875Q270.832 115.40423046875 270.156 115.40423046875Q269.48 115.40423046875 269.272 114.98823046875L242.12800000000001 59.34823046875Q238.488 51.96423046875 231.936 51.96423046875Q231.728 51.96423046875 231.728 51.34023046875Q231.728 50.71623046875 231.936 50.71623046875Q233.80800000000002 50.71623046875 235.836 50.82023046875Q237.864 50.92423046875 239.32000000000002 50.92423046875Q241.29600000000002 50.92423046875 242.90800000000002 50.82023046875Q244.52 50.71623046875 245.352 50.71623046875Q246.80800000000002 50.71623046875 247.64000000000001 51.70423046875Q248.472 52.692230468750004 250.13600000000002 56.12423046875L273.744 104.06823046875L269.896 110.72423046875L294.96000000000004 53.31623046875Q295.48 52.06823046875 296.26 51.39223046875Q297.04 50.71623046875 298.08000000000004 50.71623046875Q298.808 50.71623046875 299.9 50.82023046875Q300.992 50.92423046875 302.448 50.92423046875Q305.36 50.92423046875 307.336 50.82023046875Q309.312 50.71623046875 311.392 50.71623046875Q311.6 50.71623046875 311.6 51.34023046875Q311.6 51.96423046875 311.392 51.96423046875Q306.4 51.96423046875 304.11199999999997 53.57623046875Q301.824 55.18823046875 301.928 59.45223046875L304.112 107.29223046875Q304.32 110.30823046875 304.94399999999996 111.86823046875Q305.568 113.42823046875 307.336 113.94823046875Q309.10400000000004 114.46823046875 312.744 114.46823046875ZM348.0 116.34023046875Q347.584 116.54823046874999 347.064 116.54823046874999Q345.504 116.54823046874999 344.1 114.20823046875Q342.696 111.86823046875 342.696 107.50023046875V88.46823046875Q342.696 82.02023046875 341.08400000000006 79.26423046875Q339.47200000000004 76.50823046875 336.66400000000004 76.50823046875Q334.064 76.50823046875 332.504 77.91223046875001Q330.944 79.31623046875 330.26800000000003 81.13623046875Q329.59200000000004 82.95623046875 329.28000000000003 84.51623046875Q329.072 86.49223046875 328.084 87.84423046875Q327.096 89.19623046875 324.80800000000005 89.19623046875Q322.728 89.19623046875 321.79200000000003 88.15623046875001Q320.85600000000005 87.11623046875 320.85600000000005 85.86823046875Q320.85600000000005 83.68423046875 322.884 81.70823046875Q324.91200000000003 79.73223046875 328.03200000000004 78.06823046875Q331.15200000000004 76.40423046875 334.53200000000004 75.46823046875Q337.91200000000003 74.53223046875 340.61600000000004 74.53223046875Q344.88 74.53223046875 347.324 77.28823046875Q349.76800000000003 80.04423046875 349.76800000000003 85.34823046875V104.48423046875Q349.76800000000003 107.91623046875 350.70400000000006 109.58023046875Q351.64000000000004 111.24423046875 353.72 111.24423046875Q355.488 111.24423046875 358.29600000000005 110.10023046875Q358.71200000000005 109.89223046875 358.97200000000004 110.46423046875Q359.232 111.03623046875 358.71200000000005 111.24423046875ZM328.86400000000003 116.44423046874999Q324.704 116.44423046874999 322.572 114.36423046875Q320.44 112.28423046875 320.44 109.16423046874999Q320.44 106.66823046875 321.79200000000003 104.95223046875Q323.144 103.23623046875 325.692 101.88423046874999Q328.24 100.53223046875 331.88 99.18023046875L343.73600000000005 94.81223046875L344.048 96.16423046874999L334.584 100.01223046875Q333.024 100.63623046875 331.72400000000005 101.46823046875Q330.42400000000004 102.30023046875 329.59200000000004 103.49623046875Q328.76000000000005 104.69223046875 328.76000000000005 106.35623046875Q328.76000000000005 108.85223046875 330.42400000000004 110.46423046875Q332.088 112.07623046875 334.48 112.07623046875Q335.416 112.07623046875 336.456 111.76423046875Q337.49600000000004 111.45223046875 338.952 110.62023046875L345.088 106.77223046875L345.29600000000005 108.22823046875L337.704 113.22023046875Q335.312 114.98823046875 333.284 115.71623046875Q331.25600000000003 116.44423046874999 328.86400000000003 116.44423046874999ZM374.312 87.53223046875 373.68800000000005 86.38823046875Q377.64000000000004 81.60423046874999 380.24 79.10823046875Q382.84000000000003 76.61223046875 384.712 75.62423046875Q386.584 74.63623046875 388.24800000000005 74.63623046875Q390.432 74.63623046875 392.616 75.98823046875Q394.8 77.34023046875001 394.8 79.42023046874999Q394.8 80.98023046875 393.76 82.07223046874999Q392.72 83.16423046874999 390.952 83.16423046874999Q389.288 83.16423046874999 388.3 82.22823046875Q387.312 81.29223046875 386.324 80.40823046875Q385.336 79.52423046875 383.672 79.52423046875Q382.84000000000003 79.52423046875 381.80000000000007 80.04423046875Q380.76000000000005 80.56423046875 379.04400000000004 82.28023046875Q377.32800000000003 83.99623046875 374.312 87.53223046875ZM363.288 115.71623046875Q362.97600000000006 115.71623046875 362.97600000000006 115.09223046874999Q362.97600000000006 114.46823046875 363.288 114.46823046875Q367.03200000000004 114.46823046875 368.22800000000007 113.06423046875Q369.42400000000004 111.66023046875 369.42400000000004 107.29223046875V87.01223046875Q369.42400000000004 83.68423046875 368.644 82.12423046875Q367.86400000000003 80.56423046875 365.992 80.56423046875Q364.95200000000006 80.56423046875 363.6 80.92823046875Q362.24800000000005 81.29223046875 360.48 82.02023046875Q360.064 82.22823046875 359.856 81.65623046875001Q359.648 81.08423046875001 359.96000000000004 80.87623046875001L372.752 74.74023046875Q373.168 74.63623046875 373.37600000000003 74.63623046875Q374.312 74.63623046875 375.456 76.92423046875Q376.6 79.21223046875 376.6 83.47623046875V107.29223046875Q376.6 110.20423046875 377.38 111.76423046875Q378.16 113.32423046875 380.29200000000003 113.89623046874999Q382.42400000000004 114.46823046875 386.48 114.46823046875Q386.79200000000003 114.46823046875 386.79200000000003 115.09223046874999Q386.79200000000003 115.71623046875 386.48 115.71623046875Q383.776 115.71623046875 380.34400000000005 115.61223046875Q376.91200000000003 115.50823046875 373.064 115.50823046875Q370.25600000000003 115.50823046875 367.708 115.61223046875Q365.16 115.71623046875 363.288 115.71623046875ZM417.368 117.06823046875Q413.0 117.06823046875 409.256 114.88423046874999Q405.512 112.70023046875 403.172 108.38423046874999Q400.832 104.06823046875 400.832 97.82823046875001Q400.832 91.58823046875 402.86 87.06423046875Q404.88800000000003 82.54023046875 408.216 79.68023046875Q411.544 76.82023046875 415.6 75.52023046875Q419.656 74.22023046875 423.608 74.22023046875Q431.72 74.22023046875 438.79200000000003 78.69223046875L433.592 87.94823046875Q433.592 84.10023046875 431.772 81.50023046875Q429.952 78.90023046875001 427.03999999999996 77.60023046875Q424.128 76.30023046875 420.8 76.30023046875Q414.872 76.30023046875 411.856 80.77223046875Q408.84000000000003 85.24423046875 408.84000000000003 94.18823046874999Q408.84000000000003 103.44423046874999 412.324 108.22823046875Q415.808 113.01223046875 421.216 113.01223046875Q425.272 113.01223046875 428.652 110.77623046875Q432.032 108.54023046875 434.944 105.62823046875L435.776 106.35623046875Q433.696 108.64423046875 430.992 111.14023046874999Q428.288 113.63623046875 424.96000000000004 115.35223046875001Q421.632 117.06823046875 417.368 117.06823046875ZM425.376 144.31623046875Q425.168 144.31623046875 425.168 143.69223046874998Q425.168 143.06823046875 425.376 143.06823046875Q430.576 143.06823046875 432.084 141.71623046874998Q433.592 140.36423046875 433.592 135.89223046875V79.52423046875L445.136 75.36423046875001Q445.552 75.15623046875001 445.76 75.62423046875Q445.968 76.09223046875 445.552 76.30023046875Q443.16 77.65223046874999 441.86 79.68023046875Q440.56 81.70823046875 440.56 85.03623046875V135.89223046875Q440.56 140.36423046875 441.756 141.71623046874998Q442.952 143.06823046875 446.904 143.06823046875Q447.216 143.06823046875 447.216 143.69223046874998Q447.216 144.31623046875 446.904 144.31623046875Q444.928 144.31623046875 442.38 144.21223046875002Q439.832 144.10823046875 437.024 144.10823046875Q433.8 144.10823046875 430.836 144.21223046875002Q427.872 144.31623046875 425.376 144.31623046875ZM467.6 116.65223046874999Q462.296 116.65223046874999 459.228 113.27223046875Q456.16 109.89223046875 456.16 103.86023046875V88.15623046875Q456.16 84.20423046875 455.48400000000004 82.43623046875Q454.808 80.66823046875 453.04 80.66823046875Q451.688 80.66823046875 449.81600000000003 81.60423046874999Q449.40000000000003 81.81223046875 449.14 81.18823046874999Q448.88 80.56423046875 449.296 80.46023046875L461.56800000000004 74.74023046875Q461.776 74.63623046875 461.98400000000004 74.63623046875Q462.40000000000003 74.63623046875 462.81600000000003 74.94823046875Q463.232 75.26023046875 463.232 75.67623046874999V99.90823046874999Q463.232 105.94023046875 465.36400000000003 108.80023046875Q467.49600000000004 111.66023046875 471.86400000000003 111.66023046875Q475.608 111.66023046875 479.3 109.47623046875Q482.992 107.29223046875 485.592 103.75623046875L486.112 104.90023046875Q481.744 110.72423046875 477.22 113.68823046874999Q472.696 116.65223046874999 467.6 116.65223046874999ZM490.688 75.67623046874999V104.27623046875Q490.688 107.81223046875 491.46799999999996 109.37223046874999Q492.248 110.93223046874999 494.12 110.93223046874999Q495.05600000000004 110.93223046874999 496.25200000000007 110.56823046874999Q497.44800000000004 110.20423046875 499.216 109.47623046875Q499.632 109.26823046875 499.892 109.84023046875001Q500.152 110.41223046875 499.84000000000003 110.62023046875L486.944 116.75623046875Q486.736 116.86023046875 486.42400000000004 116.86023046875Q485.592 116.86023046875 484.604 114.52023046875Q483.616 112.18023046875 483.616 107.81223046875V88.15623046875Q483.616 84.20423046875 482.88800000000003 82.43623046875Q482.16 80.66823046875 480.496 80.66823046875Q479.144 80.66823046875 477.168 81.60423046874999Q476.856 81.81223046875 476.596 81.18823046874999Q476.336 80.56423046875 476.752 80.46023046875L489.024 74.74023046875Q489.232 74.63623046875 489.44 74.63623046875Q489.752 74.63623046875 490.22 74.94823046875Q490.688 75.26023046875 490.688 75.67623046874999ZM523.344 116.96423046875Q516.896 116.96423046875 512.528 114.10423046875Q508.16 111.24423046875 505.924 106.66823046875001Q503.688 102.09223046875 503.688 96.89223046875Q503.688 90.65223046874999 506.652 85.60823046875Q509.616 80.56423046875 514.712 77.60023046875Q519.808 74.63623046875 526.048 74.63623046875Q532.08 74.63623046875 535.356 77.65223046874999Q538.632 80.66823046875 538.632 86.49223046875Q538.632 87.84423046875 538.372 88.62423046875Q538.112 89.40423046875 537.384 89.40423046875H530.208Q530.624 83.16423046874999 528.596 79.94023046875Q526.568 76.71623046875 522.512 76.71623046875Q517.416 76.71623046875 514.556 81.08423046875001Q511.696 85.45223046875 511.696 92.83623046875Q511.696 98.76423046875 513.568 103.28823046875Q515.44 107.81223046875 519.08 110.30823046875Q522.72 112.80423046874999 527.92 112.80423046874999Q531.352 112.80423046874999 533.588 111.86823046875Q535.824 110.93223046874999 538.216 109.58023046875Q538.424 109.37223046875 538.788 109.84023046875001Q539.152 110.30823046875 538.944 110.62023046875Q535.2 114.05223046875 531.3520000000001 115.50823046875Q527.504 116.96423046875 523.344 116.96423046875ZM509.304 89.50823046875 509.2 87.94823046875 532.496 87.53223046875V89.40423046875ZM546.8480000000001 114.46823046875 571.288 77.65223046874999Q571.7040000000001 76.92423046875 570.768 76.92423046875Q563.8000000000001 76.92423046875 559.224 77.80823046875Q554.648 78.69223046875 551.944 80.77223046875Q549.24 82.85223046875001 547.9920000000001 86.80423046875Q547.888 87.01223046875 547.316 86.90823046875Q546.744 86.80423046875 546.8480000000001 86.49223046875L550.592 72.24423046875Q550.696 72.03623046875 551.32 72.08823046875Q551.9440000000001 72.14023046874999 551.84 72.34823046875Q551.32 74.32423046875 552.5160000000001 74.94823046875001Q553.712 75.57223046875 556.832 75.57223046875Q560.6800000000001 75.57223046875 566.296 75.57223046875Q571.912 75.57223046875 579.4 75.57223046875Q579.9200000000001 75.57223046875 580.1800000000001 75.98823046875Q580.44 76.40423046875 580.232 76.82023046875L556.0 113.32423046875Q555.5840000000001 114.05223046875 556.52 114.05223046875Q563.072 114.05223046875 567.232 113.63623046875Q571.392 113.22023046875 573.94 112.07623046875Q576.488 110.93223046874999 577.944 108.80023046874999Q579.4 106.66823046875 580.336 103.34023046875Q580.44 103.02823046875 580.96 103.02823046875Q581.48 103.02823046875 581.48 103.34023046875L581.272 114.57223046874999Q581.272 114.98823046875 581.0120000000001 115.35223046875001Q580.7520000000001 115.71623046875 580.336 115.71623046875Q575.344 115.71623046875 569.7280000000001 115.71623046875Q564.1120000000001 115.71623046875 558.4440000000001 115.71623046875Q552.7760000000001 115.71623046875 547.576 115.71623046875Q547.1600000000001 115.71623046875 546.9000000000001 115.30023046875Q546.64 114.88423046875 546.8480000000001 114.46823046875Z" fill="#0f3e17"/>
<path d="M231.0 187.07556640625H233.77951171875V180.87111328125002H240.23380859375V178.56005859375H233.77951171875V173.90671875H240.9312890625V171.56443359375H231.0ZM251.74336197916668 187.07556640625H254.78312760416668L256.0531666666667 183.23421875H261.8516236979167L263.1737135416667 187.07556640625H266.2238893229167L260.68568619791665 171.56443359375H257.15664322916666ZM256.7922877604167 180.99603515625 257.4481276041667 179.01810546875C257.8749440104167 177.6335546875 258.34340104166665 175.89505859375 258.8951393229167 173.72974609375C259.4676979166667 175.87423828125 259.9569752604167 177.5919140625 260.4150221354167 179.01810546875L261.0916822916667 180.99603515625ZM277.54605989583337 187.07556640625H280.27352083333335V179.24712890625C280.27352083333335 178.07078125 280.2110598958334 175.92628906250002 280.1694192708334 174.16697265625C280.74197786458336 176.16572265625 281.36658723958334 178.23734375 281.7309427083334 179.24712890625L284.6353763020834 187.07556640625H286.9984817708334L289.8612747395834 179.24712890625C290.22563020833337 178.20611328125 290.8814700520834 176.07203125 291.41238802083336 174.08369140625C291.3811575520834 175.92628906250002 291.31869661458336 178.09160156250002 291.31869661458336 179.24712890625V187.07556640625H294.08779817708336V171.56443359375H289.8925052083334L286.9776614583334 179.56984375000002C286.6757669270834 180.49634765625 286.1968997395834 182.41181640625 285.83254427083335 183.942109375C285.47859895833335 182.39099609375 284.9893216145834 180.4859375 284.67701692708334 179.56984375000002L281.7309427083334 171.56443359375H277.54605989583337ZM309.24090625 171.56443359375H306.46139453125005V187.07556640625H309.24090625ZM321.6145026041667 187.07556640625H331.2438971354167V184.73328125H324.3940143229167V171.56443359375H321.6145026041667ZM347.6045833333334 187.07556640625H350.38409505208335V181.06890625L356.0472200520834 171.56443359375H352.82007161458336L350.1030208333334 176.45720703125C349.69702473958336 177.196328125 349.3534895833334 177.862578125 349.00995442708336 178.74744140625C348.6664192708334 177.8833984375 348.32288411458336 177.21714843750001 347.89606770833336 176.45720703125L345.12696614583336 171.56443359375H341.8789973958334L347.6045833333334 181.06890625ZM382.0019908854167 187.07556640625H384.7815026041667V180.319375H391.9957408854167V187.07556640625H394.7752526041667V171.56443359375H391.9957408854167V177.97708984375H384.7815026041667V171.56443359375H382.0019908854167ZM413.7905286458334 187.28376953125002C417.85048958333334 187.28376953125002 420.90066536458335 184.33769531250002 420.90066536458335 179.33041015625C420.90066536458335 174.31271484375 417.85048958333334 171.35623046875 413.7905286458334 171.35623046875C409.7201575520834 171.35623046875 406.65957161458334 174.31271484375 406.65957161458334 179.33041015625C406.65957161458334 184.32728515625 409.7201575520834 187.28376953125002 413.7905286458334 187.28376953125002ZM413.7905286458334 184.7957421875C411.25045052083334 184.7957421875 409.44949348958335 182.85945312500002 409.44949348958335 179.33041015625C409.44949348958335 175.780546875 411.25045052083334 173.84425781250002 413.7905286458334 173.84425781250002C416.30978645833335 173.84425781250002 418.10033333333337 175.77013671875 418.10033333333337 179.33041015625C418.10033333333337 182.86986328125 416.30978645833335 184.7957421875 413.7905286458334 184.7957421875ZM432.784984375 187.07556640625H435.5124453125V179.24712890625C435.5124453125 178.07078125 435.44998437500004 175.92628906250002 435.40834375000003 174.16697265625C435.98090234375 176.16572265625 436.60551171875 178.23734375 436.96986718750003 179.24712890625L439.87430078125004 187.07556640625H442.23740625000005L445.10019921875005 179.24712890625C445.4645546875 178.20611328125 446.12039453125004 176.07203125 446.6513125 174.08369140625C446.62008203125004 175.92628906250002 446.55762109375 178.09160156250002 446.55762109375 179.24712890625V187.07556640625H449.32672265625V171.56443359375H445.13142968750003L442.21658593750004 179.56984375000002C441.91469140625003 180.49634765625 441.43582421875004 182.41181640625 441.07146875 183.942109375C440.7175234375 182.39099609375 440.22824609375004 180.4859375 439.91594140625 179.56984375000002L436.96986718750003 171.56443359375H432.784984375ZM461.7003190104167 187.07556640625H471.8189908854167V184.73328125H464.4798307291667V180.40265625H471.2360221354167V178.09160156250002H464.4798307291667V173.90671875H471.7773502604167V171.56443359375H461.7003190104167ZM505.09210156250003 187.28376953125002C508.75647656250004 187.28376953125002 511.21327343750005 184.8790234375 511.64008984375005 181.91212890625002H508.82934765625004C508.47540234375003 183.74431640625 506.97633984375005 184.7957421875 505.1233320312501 184.7957421875C502.60407421875004 184.7957421875 500.78229687500004 182.89068359375 500.78229687500004 179.33041015625C500.78229687500004 175.81177734375 502.59366406250007 173.84425781250002 505.13374218750005 173.84425781250002C506.98675000000003 173.84425781250002 508.48581250000007 174.89568359375 508.82934765625004 176.72787109375H511.6296796875001C511.14040234375005 173.33416015625 508.49622265625004 171.35623046875 505.09210156250003 171.35623046875C501.04255078125004 171.35623046875 497.99237500000004 174.31271484375 497.99237500000004 179.33041015625C497.99237500000004 184.32728515625 501.01132031250006 187.28376953125002 505.09210156250003 187.28376953125002ZM522.4001119791667 187.07556640625H525.4398776041667L526.7099166666667 183.23421875H532.5083736979167L533.8304635416667 187.07556640625H536.8806393229167L531.3424361979166 171.56443359375H527.8133932291666ZM527.4490377604167 180.99603515625 528.1048776041667 179.01810546875C528.5316940104167 177.6335546875 529.0001510416666 175.89505859375 529.5518893229167 173.72974609375C530.1244479166667 175.87423828125 530.6137252604167 177.5919140625 531.0717721354167 179.01810546875L531.7484322916667 180.99603515625ZM548.2028098958334 187.07556640625H550.9823216145834V181.38121093750001H553.8763450520834L556.9265208333334 187.07556640625H560.0391575520835L556.6766770833334 180.91275390625C558.5088645833334 180.18404296875 559.4665989583334 178.6329296875 559.4665989583334 176.53007812500002C559.4665989583334 173.57359375000001 557.5719505208334 171.56443359375 554.0012669270834 171.56443359375H548.2028098958334ZM550.9823216145834 179.08056640625V173.89630859375H553.5744505208335C555.6877122395834 173.89630859375 556.6246263020834 174.87486328125001 556.6246263020834 176.53007812500002C556.6246263020834 178.17488281250002 555.6877122395834 179.08056640625 553.5952708333334 179.08056640625ZM571.3613281250001 187.07556640625H581.4800000000001V184.73328125H574.1408398437501V180.40265625H580.8970312500002V178.09160156250002H574.1408398437501V173.90671875H581.4383593750001V171.56443359375H571.3613281250001Z" fill="#0f3e17"/>
</svg>
